<svg width="1464" height="809" viewBox="0 0 1464 809" fill="none" xmlns="http://www.w3.org/2000/svg">
<rect x="203" y="203" width="404.914" height="404.914" rx="202.457" fill="url(#paint0_linear_59_253)"/>
<path fill-rule="evenodd" clip-rule="evenodd" d="M441.134 428.838C431.743 428.838 427.83 422.057 427.83 405.468C427.83 388.87 431.743 382.088 441.134 382.088C450.516 382.088 454.429 388.87 454.429 405.468C454.429 422.057 450.516 428.838 441.134 428.838V428.838ZM369.77 428.838C360.388 428.838 356.475 422.057 356.475 405.468C356.475 388.87 360.388 382.088 369.77 382.088C379.161 382.088 383.084 388.87 383.084 405.468C383.084 422.057 379.161 428.838 369.77 428.838V428.838ZM503.094 476.311C500.753 469.316 501.354 461.702 504.666 455.114C514.14 436.324 518.47 414.517 515.612 391.442C509.422 341.629 469.25 301.365 419.418 295.286C347.169 286.469 286.476 347.153 295.284 419.411C301.363 469.233 341.618 509.405 391.422 515.604C414.496 518.472 436.313 514.142 455.113 504.677C461.7 501.356 469.314 500.755 476.318 503.095L498.921 510.627C506.156 513.041 513.03 506.158 510.634 498.932L503.094 476.311Z" fill="white"/>
<path fill-rule="evenodd" clip-rule="evenodd" d="M868.933 389.497V303.611C868.933 302.146 870.127 300.963 871.586 300.963H885.62C887.088 300.963 888.282 302.146 888.282 303.611V502.275C888.282 503.732 887.088 504.923 885.62 504.923H871.586C870.127 504.923 868.933 503.732 868.933 502.275V408.799H847.63V496.468C847.63 497.924 846.437 499.107 844.978 499.107H830.944C829.476 499.107 828.291 497.924 828.291 496.468V309.974C828.291 308.518 829.476 307.326 830.944 307.326H844.978C846.437 307.326 847.63 308.518 847.63 309.974V389.497H868.933ZM775.899 356.271C776.19 371.963 781.434 387.409 791.126 401.019L819.556 441.009C820.405 442.201 820.122 443.86 818.937 444.699L807.494 452.81C806.301 453.657 804.638 453.375 803.798 452.183L775.35 412.192C771.866 407.303 768.824 402.069 766.224 396.544C763.633 402.078 760.574 407.312 757.107 412.192L728.659 452.183C727.81 453.375 726.148 453.657 724.963 452.81L713.52 444.699C712.326 443.86 712.052 442.201 712.892 441.009L741.322 401.019C751.006 387.418 756.258 371.972 756.541 356.271H720.011C718.543 356.271 717.358 355.079 717.358 353.623V339.616C717.358 338.151 718.543 336.968 720.011 336.968H756.55V307.578C756.55 306.121 757.744 304.93 759.212 304.93H773.237C774.705 304.93 775.89 306.121 775.89 307.578V336.968H812.438C813.906 336.968 815.091 338.151 815.091 339.616V353.623C815.091 355.079 813.906 356.271 812.438 356.271H775.899ZM1024.16 387.024C1023.88 384.006 1023.35 377.951 1023.1 374.924C1022.89 372.488 1020.81 371.508 1019.23 371.623C1017.71 371.738 1013.17 372.144 1013.17 372.144C1007.97 372.585 964.538 376.239 938.531 377.13V310.971C938.531 309.506 937.355 308.323 935.887 308.323H921.853C920.385 308.323 919.2 309.506 919.2 310.971V393.097C919.2 394.712 920.571 396.627 922.728 396.627H928.865C953.688 396.627 1014.22 391.429 1014.82 391.376C1014.82 391.376 1019.31 390.987 1020.81 390.864C1023.24 390.652 1024.29 388.525 1024.16 387.024ZM1182.26 393.677V410.579H1254.39C1255.85 410.579 1257.04 411.762 1257.04 413.227V427.225C1257.04 428.69 1255.85 429.881 1254.39 429.881H1090.8C1089.33 429.881 1088.14 428.69 1088.14 427.225V413.227C1088.14 411.762 1089.33 410.579 1090.8 410.579H1162.92V393.677H1115.3C1113.84 393.677 1112.65 392.494 1112.65 391.038V310.554C1112.65 309.097 1113.84 307.915 1115.3 307.915H1225.79C1227.26 307.915 1228.45 309.097 1228.45 310.554V324.561C1228.45 326.026 1227.26 327.208 1225.79 327.208H1131.98V340.933H1225.79C1227.26 340.933 1228.45 342.124 1228.45 343.589V357.587C1228.45 359.053 1227.26 360.235 1225.79 360.235H1131.98V374.383H1231.53C1233 374.383 1234.19 375.566 1234.19 377.031V391.038C1234.19 392.494 1233 393.677 1231.53 393.677H1182.26ZM969 485.627V467.207H1059.61C1061.07 467.207 1062.27 466.016 1062.27 464.559V304.606C1062.27 303.149 1061.07 301.958 1059.61 301.958H1045.58C1044.11 301.958 1042.93 303.149 1042.93 304.606V336.979H994.989C993.53 336.979 992.345 338.162 992.345 339.627V353.634C992.345 355.09 993.53 356.282 994.989 356.282H1042.93V411.383H952.313C950.845 411.383 949.66 412.565 949.66 414.031V428.037C949.66 429.494 950.845 430.676 952.313 430.676H1042.93V447.905H952.313C950.845 447.905 949.66 449.087 949.66 450.553V502.282C949.66 503.738 950.845 504.93 952.313 504.93H1065.34C1066.81 504.93 1068 503.738 1068 502.282V488.275C1068 486.81 1066.81 485.627 1065.34 485.627H969ZM1109.11 458.975V444.968C1109.11 443.503 1110.3 442.32 1111.76 442.32H1228.41C1230.39 442.32 1231.95 443.971 1231.95 445.851V451.967C1231.95 473.147 1226.16 498.206 1225.65 500.43L1225.62 500.554L1223.38 509.945L1204.58 505.497L1206.8 496.088C1206.86 495.903 1210.91 478.613 1212.21 461.623H1111.76C1110.3 461.623 1109.11 460.431 1109.11 458.975Z" fill="#202457"/>
<defs>
<linearGradient id="paint0_linear_59_253" x1="305.783" y1="408.565" x2="305.783" y2="607.914" gradientUnits="userSpaceOnUse">
<stop stop-color="#4A26FF"/>
<stop offset="1" stop-color="#6E26FF"/>
</linearGradient>
</defs>
</svg>
